/* XPM */
static const char * start_xpm[] = {
"17 12 4 1",
" 	c None",
".	c #000000",
"+	c #FFFFFF",
"@	c #808080",
"   ......    ... ",
"   .++++.   .++.@",
"   .+  +.@..+ +.@",
"   .+  +..++  +.@",
"   .+  +.+    +.@",
"   .   +.@    +.@",
"   .   +.@    +.@",
"   .   +..    +.@",
"   .   +.@..  +.@",
"   .   +.@ @. +.@",
"   ......@  @...@",
"      @@@    @@@ "};
