/* XPM */
static const char * stop_xpm[] = {
"12 12 4 1",
" 	c None",
".	c #000000",
"X	c #FFFFFF",
"o	c #808080",
" .........  ",
". XXXXXXXX. ",
".X       o.o",
".X       o.o",
".X       o.o",
".X       o.o",
".X       o.o",
".X       o.o",
".X       o.o",
".Xoooooooo.o",
" ......... o",
" oooooooooo "};
