/* XPM */
static char * mscore_xpm[] = {
"32 32 92 2",
"  	c None",
". 	c #FFFFFF",
"+ 	c #E4E4E4",
"@ 	c #A4A4A3",
"# 	c #949492",
"$ 	c #868684",
"% 	c #8E8E8C",
"& 	c #999997",
"* 	c #C6C6C5",
"= 	c #C5C5C4",
"- 	c #8C8C8A",
"; 	c #D6D6D5",
"> 	c #FCFCFB",
", 	c #EEEEED",
"' 	c #A7A7A5",
") 	c #9C9C9A",
"! 	c #DFDFDE",
"~ 	c #FEFEFE",
"{ 	c #AFAFAD",
"] 	c #B1B1AF",
"^ 	c #EDEDEC",
"/ 	c #969694",
"( 	c #DEDEDD",
"_ 	c #8A8A88",
": 	c #ABABAA",
"< 	c #FDFDFD",
"[ 	c #A0A09E",
"} 	c #DADADA",
"| 	c #A3A3A1",
"1 	c #9B9B99",
"2 	c #FCFCFC",
"3 	c #DDDDDC",
"4 	c #939391",
"5 	c #D5D5D4",
"6 	c #E5E5E4",
"7 	c #E0E0DF",
"8 	c #E3E3E3",
"9 	c #E2E2E2",
"0 	c #A5A5A4",
"a 	c #989896",
"b 	c #D3D3D2",
"c 	c #9D9D9C",
"d 	c #BFBFBE",
"e 	c #E6E6E5",
"f 	c #929290",
"g 	c #D3D3D3",
"h 	c #8D8D8B",
"i 	c #ECECEC",
"j 	c #A4A4A2",
"k 	c #A8A8A6",
"l 	c #8F8F8D",
"m 	c #D8D8D7",
"n 	c #A9A9A7",
"o 	c #979796",
"p 	c #898987",
"q 	c #A1A19F",
"r 	c #9D9D9B",
"s 	c #C2C2C1",
"t 	c #7C7C79",
"u 	c #535350",
"v 	c #E8E8E8",
"w 	c #454541",
"x 	c #F5F5F4",
"y 	c #E1E1E1",
"z 	c #747471",
"A 	c #6B6B68",
"B 	c #F3F3F3",
"C 	c #959593",
"D 	c #EAEAEA",
"E 	c #F6F6F6",
"F 	c #90908E",
"G 	c #F7F7F7",
"H 	c #F8F8F8",
"I 	c #696967",
"J 	c #9E9E9D",
"K 	c #C8C8C7",
"L 	c #575754",
"M 	c #CDCDCC",
"N 	c #858583",
"O 	c #B2B2B0",
"P 	c #EEEEEE",
"Q 	c #7C7C7A",
"R 	c #FBFBFB",
"S 	c #838381",
"T 	c #91918F",
"U 	c #AAAAA8",
"V 	c #CCCCCB",
"W 	c #F4F4F3",
"X 	c #EFEFEF",
"Y 	c #7B7B78",
"Z 	c #C0C0BF",
"` 	c #D0D0CF",
"                                                                ",
"    . . . . . . . . . . . . . . . . . . . . . . . . . . .       ",
"  . . . . . . . . . . . . . . . . . . . . . . . . . . . . . .   ",
"  . . . . . . . . . . . . . . . . . . . . . . . . . . . . . .   ",
"  . . . . . . . . . . . . . . . . . . . . . . . . . . . . . .   ",
"  . . . . . . . . . . . . . . . . . . . + @ # $ % & * . . . .   ",
"  . . . . . . . . . . . . . . . . . . = - ; > . . , ' ) . . .   ",
"  . . . . . . . . . . . . . . . . . ! - ~ . . . . . . { ] ^ .   ",
"  . . . . . . . . . . . . . . . . . / ( . . . . . . . ~ _ : .   ",
"  . . . . . . . . . . . . . . . . < % . . . . [ } . . . | 1 .   ",
"  . . . . . . . . . . . . . . . . 2 3 . . . . 4 5 . . . 6 7 .   ",
"  . . . . . . . . . . . . . . . . . . . . . . . . . . . . . .   ",
"  . . . . . . . . . . . . . . . . . . . . . . . . . . . . . .   ",
"  . ! 8 . 9 0 a & = . . . b c a 1 d 2 . . . . . . . . . 3 e .   ",
"  . f ' g h g i 8 j j . k l m i + k 4 . . . . . . . . . - n .   ",
"  . o p & 2 . . . . # q r . . . . . q s . . . . . . . . - n .   ",
"  . t u v . . . . . 5 w x . . . . . y & . . . . . . . . - n .   ",
"  . z A . . . . . . e t . . . . . . B C . . . . . . . . - n .   ",
"  . p / . . . . . . D C . . . . . . E / . . . . . . . . - n .   ",
"  . F q . . . . . . D / . . . . . . E / . . . . . . . . - n .   ",
"  . F q . . . . . . D / . . . . . . E / . . . . . . . . - n .   ",
"  . F q . . . . . . D / . . . . . . G C . . . . . . . . $ ' .   ",
"  . F q . . . . . . D / . . . . . . H C . . . . . . . E I J .   ",
"  . F q . . . . . . D / . . . . . . ~ l . . . . . . . K L @ .   ",
"  . F q . . . . . . D / . . . . . . . o M . . . . . x p N O .   ",
"  . F q . . . . . . D / . . . . . . . P Q K R . < } S ; T U .   ",
"  . s V . . . . . . W * . . . . . . . . X @ T Y h 1 7 . Z ` .   ",
"  . . . . . . . . . . . . . . . . . . . . . . . . . . . . . .   ",
"  . . . . . . . . . . . . . . . . . . . . . . . . . . . . . .   ",
"    . . . . . . . . . . . . . . . . . . . . . . . . . . . .     ",
"      . . . . . . . . . . . . . . . . . . . . . . . . . .       ",
"                                                                "};
