/* XPM */
static const char* flip_xpm[] = {
"16 22 2 1",
". c none",
"# c #000000",
"..........#.....",
"..........#.....",
"..........#.....",
"..........#.....",
"..........#.....",
"..........#.....",
"..........#.....",
"..........#.....",
".......####.....",
".....######.....",
"....#######.....",
"....#######.....",
"....######......",
"....####........",
"....#...........",
"....#...........",
"....#...........",
"....#...........",
"....#...........",
"....#...........",
"....#...........",
"....#...........",
};


