<?xml version="1.0" encoding="UTF-8" standalone="no"?>
<svg
   xmlns:dc="http://purl.org/dc/elements/1.1/"
   xmlns:cc="http://creativecommons.org/ns#"
   xmlns:rdf="http://www.w3.org/1999/02/22-rdf-syntax-ns#"
   xmlns:svg="http://www.w3.org/2000/svg"
   xmlns="http://www.w3.org/2000/svg"
   xmlns:sodipodi="http://sodipodi.sourceforge.net/DTD/sodipodi-0.dtd"
   xmlns:inkscape="http://www.inkscape.org/namespaces/inkscape"
   viewBox="-1 -200 1000 1000"
   id="svg34224"
   sodipodi:version="0.32"
   inkscape:version="0.47 r22583"
   width="128"
   height="128"
   sodipodi:docname="fotomode.svg"
   inkscape:output_extension="org.inkscape.output.svg.inkscape"
   version="1.0">
  <defs
     id="defs7">
    <inkscape:perspective
       sodipodi:type="inkscape:persp3d"
       inkscape:vp_x="0 : 64 : 1"
       inkscape:vp_y="0 : 1000 : 0"
       inkscape:vp_z="128 : 64 : 1"
       inkscape:persp3d-origin="64 : 42.666667 : 1"
       id="perspective10" />
  </defs>
  <metadata
     id="metadata34233">
    <rdf:RDF>
      <cc:Work
         rdf:about="">
        <dc:format>image/svg+xml</dc:format>
        <dc:type
           rdf:resource="http://purl.org/dc/dcmitype/StillImage" />
      </cc:Work>
    </rdf:RDF>
  </metadata>
  <sodipodi:namedview
     inkscape:window-height="894"
     inkscape:window-width="889"
     inkscape:pageshadow="2"
     inkscape:pageopacity="1"
     borderopacity="1.0"
     bordercolor="#666666"
     pagecolor="#ffffff"
     id="base"
     showguides="true"
     inkscape:guide-bbox="true"
     inkscape:zoom="5.6862552"
     inkscape:cx="34.833066"
     inkscape:cy="65.407737"
     inkscape:window-x="958"
     inkscape:window-y="13"
     inkscape:current-layer="svg34224"
     width="128px"
     height="128px"
     showgrid="true"
     showborder="true"
     inkscape:showpageshadow="true"
     inkscape:window-maximized="0" />
  <path
     style="fill:none;stroke:#000000;stroke-width:10;stroke-linecap:butt;stroke-linejoin:miter;stroke-opacity:1;stroke-miterlimit:4;stroke-dasharray:none"
     d="m 33.941495,116.04134 c 0,0.14889 0.03151,0.60895 0,0.70345 -0.01717,0.0515 -0.234484,0.2931 -0.351726,0.17586 -0.04145,-0.0414 0,-0.11726 0,-0.17586 0,-0.0586 -0.02622,-0.12346 0,-0.17586 0.03708,-0.0741 0.138793,-0.10177 0.175863,-0.17587 0.02622,-0.0524 -0.05243,-0.14966 0,-0.17586 0.104864,-0.0524 0.254175,0.065 0.351725,0 0.109063,-0.0727 0.108423,-0.23932 0.175863,-0.35172 0.108744,-0.18124 0.257205,-0.33855 0.351725,-0.52759 0.05862,-0.11724 -0.157296,-0.54759 0.175863,-0.52759 0.09948,-0.13264 0.222253,-0.24815 0.351725,-0.35173 0.165045,-0.13203 0.418844,-0.17048 0.527588,-0.35172 0.09048,-0.1508 0,-0.35173 0,-0.52759 0.05862,-0.11724 0.103153,-0.24266 0.175863,-0.35172 0.04599,-0.069 0.138783,-0.10167 0.175863,-0.17587 0.02622,-0.0524 -0.04145,-0.13446 0,-0.17586 0.04145,-0.0414 0.134412,0.0414 0.175862,0 0.04145,-0.0414 -0.02622,-0.12346 0,-0.17586 0.03708,-0.0742 0.138793,-0.10166 0.175863,-0.17586 0.02622,-0.0524 -0.04145,-0.13447 0,-0.17587 0.04145,-0.0414 0.134413,0.0414 0.175863,0 0.0829,-0.0829 -0.0829,-0.26882 0,-0.35172 0.04145,-0.0414 0.134412,0.0414 0.175862,0 0.04145,-0.0414 -0.02622,-0.12347 0,-0.17587 0.03708,-0.0741 0.138783,-0.10166 0.175863,-0.17586 0.05243,-0.10486 -0.05243,-0.24686 0,-0.35172 0.03708,-0.0741 0.138783,-0.10177 0.175863,-0.17587 0.05188,-0.10376 -0.04032,-0.40662 0,-0.52758 0.04145,-0.12436 0.144072,-0.22456 0.175862,-0.35173 0.07109,-0.28435 -0.04819,-0.5902 0,-0.87931 0.03048,-0.18286 0.139503,-0.34581 0.175863,-0.52759 0.03858,-0.19289 0,-0.8115 0,-1.05518 0,-0.0586 0,-0.11726 0,-0.17586 0,-0.0586 0.02622,-0.12346 0,-0.17586 -0.03708,-0.0742 -0.149643,-0.0973 -0.175863,-0.17586 -0.07092,-0.21276 0.05989,-0.81563 0,-1.05518 -0.03179,-0.12717 -0.144072,-0.22456 -0.175862,-0.35173 -0.02844,-0.11374 0.04354,-0.24287 0,-0.35172 -0.0785,-0.19624 -0.273226,-0.33135 -0.351726,-0.52759 -0.04354,-0.10886 0.02844,-0.23798 0,-0.35172 -0.03179,-0.12717 -0.117242,-0.23449 -0.175862,-0.35173 0,-0.11724 0.02844,-0.23798 0,-0.35173 -0.212308,-0.84923 -0.08357,0.009 -0.351726,-0.52758 -0.02622,-0.0524 0,-0.11727 0,-0.17587 0,-0.13582 0.03576,-0.94788 0,-1.05517 -0.04145,-0.12436 -0.150152,-0.22319 -0.175862,-0.35173 -0.03449,-0.17244 0,-0.35172 0,-0.52759 0,-0.2931 0.02654,-0.58741 0,-0.87931 -0.03228,-0.35511 -0.131633,-0.701351 -0.175863,-1.055175 -0.02908,-0.232672 0,-0.468967 0,-0.70345 0,-0.117242 -0.02844,-0.237984 0,-0.351726 0.03179,-0.127166 0.150153,-0.22319 0.175863,-0.351725 0.01433,-0.07163 -0.03313,-0.988906 0,-1.055176 0.03707,-0.07415 0.149642,-0.09721 0.175862,-0.175863 0.06229,-0.186873 -0.06229,-0.516576 0,-0.70345 0.04145,-0.124354 0.144073,-0.224559 0.175863,-0.351726 0.03925,-0.157007 0,-0.675747 0,-0.879313 0,-0.05862 0,-0.117243 0,-0.175863 0,-0.05862 -0.03252,-0.127082 0,-0.175862 0.09197,-0.137958 0.259755,-0.213768 0.351725,-0.351726 0.06503,-0.09755 -0.05243,-0.246861 0,-0.351725 0.03708,-0.07415 0.149643,-0.09721 0.175863,-0.175863 0.08004,-0.240121 -0.08004,-0.815054 0,-1.055176 0.05243,-0.157296 0.299295,-0.194429 0.351725,-0.351725 0.044,-0.132001 -0.02205,-0.944923 0,-1.055176 0.02571,-0.128535 0.150153,-0.22319 0.175863,-0.351725 0.03449,-0.172448 0,-0.351726 0,-0.527588 0,-0.293105 0,-0.586209 0,-0.879314 0,-0.996555 0,-1.99311 0,-2.989665 0,-0.64483 0,-1.289659 0,-1.934489 0,-0.175863 -0.03449,-0.355141 0,-0.527588 0.254513,-1.272554 0.175863,0.803741 0.175863,-0.879314 0,-0.527588 0,-1.055176 0,-1.582764 0,-0.117241 0,-0.234483 0,-0.351725 0,-0.05862 -0.01854,-0.120253 0,-0.175863 0.04145,-0.124353 0.144072,-0.224558 0.175862,-0.351725 0.02915,-0.116598 0,-1.508984 0,-1.582764 0,-1.231039 0,-2.462077 0,-3.693116 0,-0.468967 0,-0.937934 0,-1.406901 0,-0.117242 -0.02844,-0.237984 0,-0.351726 0.03179,-0.127166 0.144073,-0.224558 0.175863,-0.351725 0.02844,-0.113741 0,-0.234483 0,-0.351725 0,-0.234484 0,-0.468967 0,-0.703451 0,-0.410346 0,-0.820692 0,-1.231039 0,-0.410346 0,-0.820692 0,-1.231038 0,-0.175863 0.03449,-0.355141 0,-0.527588 -0.02571,-0.128535 -0.150153,-0.223191 -0.175863,-0.351725 -0.05748,-0.287413 0,-0.586209 0,-0.879314 0,-0.64483 0,-1.289659 0,-1.934489 0,-0.234484 0,-0.468967 0,-0.703451 0,-0.234483 0.03316,-0.471324 0,-0.70345 -0.02622,-0.183513 -0.139502,-0.345813 -0.175862,-0.527588 -0.05748,-0.287413 0.04819,-0.590197 0,-0.879314 -0.03048,-0.182853 -0.130903,-0.347747 -0.175863,-0.527588 -0.01422,-0.05687 0.02622,-0.123432 0,-0.175862 -0.03708,-0.07415 -0.149643,-0.09721 -0.175863,-0.175863 -0.02683,-0.0805 0,-0.781153 0,-0.879313 0,-0.05862 0.01854,-0.120253 0,-0.175863 -0.04145,-0.124354 -0.134412,-0.227372 -0.175862,-0.351725 -0.04913,-0.147395 0.05827,-0.586903 0,-0.703451 -0.03708,-0.07415 -0.138783,-0.101713 -0.175863,-0.175863 -0.02622,-0.05243 0,-0.117242 0,-0.175862 0,-0.05862 0,-0.117243 0,-0.175863 0,-0.1841 0.03575,-0.912164 0,-1.055176 -0.280727,-1.122906 -0.175863,0.783714 -0.175863,-1.055176 -0.06848,-0.308166 -0.283245,-0.571148 -0.351725,-0.879313 -0.04038,-0.181714 0,-1.111656 0,-1.406902 0,-0.234483 0.05087,-0.474551 0,-0.70345 -0.06848,-0.308166 -0.234484,-0.586209 -0.351725,-0.879314 0,-0.175862 0.03449,-0.35514 0,-0.527588 -0.02571,-0.128535 -0.150153,-0.22319 -0.175863,-0.351725 -0.05325,-0.266247 0.0697,-1.197789 0,-1.406901 -0.06684,-0.200515 -0.273225,-0.331345 -0.351725,-0.527588 -0.04354,-0.108857 0.02844,-0.237985 0,-0.351726 -0.03179,-0.127166 -0.150153,-0.22319 -0.175863,-0.351725 -0.03449,-0.172448 0,-0.351725 0,-0.527588 0,-0.293105 0,-0.586209 0,-0.879313 0,-0.293105 0,-0.586209 0,-0.879314 0,-0.05862 0.01422,-0.118992 0,-0.175862 -0.04496,-0.179841 -0.145383,-0.344735 -0.175863,-0.527588 -0.02891,-0.17347 0,-0.351726 0,-0.527588 0,-0.586209 0,-1.172418 0,-1.758627 0,-1.348281 0,-2.696561 0,-4.044841 0,-0.351726 0,-0.703451 0,-1.055176 0,-0.05862 -0.01854,-0.120253 0,-0.175863 0.04145,-0.124354 0.134413,-0.227372 0.175863,-0.351725 0.03307,-0.09922 0,-0.412028 0,-0.527588 0,-0.410347 0,-0.820693 0,-1.231039 0,-0.234484 -0.04599,-0.473521 0,-0.703451 0.03636,-0.181775 0.139503,-0.345812 0.175863,-0.527588 0.02299,-0.114965 -0.02844,-0.237984 0,-0.351725 0.03179,-0.127167 0.144072,-0.224559 0.175862,-0.351725 0.02844,-0.113742 -0.02844,-0.237985 0,-0.351726 0.03179,-0.127166 0.157323,-0.221962 0.175863,-0.351725 0.04145,-0.290159 -0.06358,-0.593189 0,-0.879313 0.05687,-0.255918 0.268825,-0.454744 0.351725,-0.703451 0.03708,-0.111225 0,-0.234484 0,-0.351725 0,-0.351726 0,-0.703451 0,-1.055176 0,-0.117242 -0.03707,-0.2405 0,-0.351726 0.02622,-0.07865 0.149643,-0.09721 0.175863,-0.175862 0.03232,-0.09695 0,-0.905931 0,-1.055176 0,-0.05862 -0.04145,-0.134413 0,-0.175863 0.04145,-0.04145 0.149643,0.05243 0.175863,0 0.05243,-0.104864 -0.02844,-0.237984 0,-0.351725 0.03179,-0.127167 0.134412,-0.227372 0.175862,-0.351726 0.03826,-0.114779 0,-0.844912 0,-1.055176 0,-0.410346 0,-0.820692 0,-1.231038 0,-0.04179 0.01971,-0.664031 0,-0.703451 -0.03708,-0.07415 -0.138782,-0.101713 -0.175862,-0.175863 -0.05339,-0.106787 0.05339,-0.948388 0,-1.055176 -0.03708,-0.07415 -0.138783,-0.101712 -0.175863,-0.175862 -0.02312,-0.04624 0,-0.611491 0,-0.703451 0,-0.527588 0,-1.055176 0,-1.582764 0,-0.117242 0,-0.234484 0,-0.351725 0,-0.05862 0.02622,-0.123433 0,-0.175863 -0.03707,-0.07415 -0.138783,-0.101713 -0.175863,-0.175863 -0.05527,-0.110533 0.05527,-0.592917 0,-0.70345 -0.03707,-0.07415 -0.138792,-0.101713 -0.175862,-0.175863 -0.05527,-0.110534 0.05527,-0.592917 0,-0.703451 -0.03708,-0.07415 -0.138793,-0.101712 -0.175863,-0.175862 -0.05527,-0.110534 0.05527,-0.592917 0,-0.703451 -0.03708,-0.07415 -0.149643,-0.09721 -0.175863,-0.175863 -0.07415,-0.22245 0.05687,-0.475968 0,-0.70345 -0.03179,-0.127167 -0.144072,-0.224559 -0.175862,-0.351726 -0.03343,-0.133737 0,-0.732048 0,-0.879313 0,-0.468967 0,-0.937934 0,-1.406901 0,-1.875869 0,-3.751737 0,-5.627606 l 0.879313,-0.351725 c 0.412429,0 -0.0829,0.041451 0.351725,-0.1758627 0.08747,-0.043736 0.915599,0.027916 1.055176,0 0.181776,-0.036355 0.344735,-0.1453871 0.527588,-0.1758626 0.17347,-0.028912 0.356976,0.042653 0.527588,0 0.539522,-0.1348805 1.038982,-0.4110633 1.582764,-0.527588 0.286598,-0.061414 0.587664,0.029165 0.879314,0 0.467092,-0.046709 2.02256,-0.4655517 2.286214,-0.527588 0.526091,-0.1237861 1.051563,-0.2521252 1.582764,-0.3517254 0.407413,-0.07639 0.828903,-0.075329 1.231039,-0.1758626 0.306258,-0.076564 0.568722,-0.2952542 0.879313,-0.3517254 0.346052,-0.062918 0.703451,0 1.055176,0 0.468967,-0.1172417 0.932889,-0.2569227 1.406902,-0.3517253 0.143969,-0.028794 0.789093,0.04511 0.879313,0 0.07415,-0.037075 0.101712,-0.1387876 0.175863,-0.1758627 0.05243,-0.026216 0.117241,0 0.175862,0 0.117242,0 0.234484,0 0.351726,0 0.410346,0 0.823861,0.050897 1.231038,0 0.239834,-0.029979 0.462743,-0.1539801 0.703451,-0.1758626 0.408661,-0.037151 0.820692,0 1.231039,0 1.34828,0 2.69656,0 4.044841,0 0.410346,0 0.820692,0 1.231038,0 0.527588,0 1.058403,0.058262 1.582764,0 0.537153,-0.059684 1.045276,-0.2951476 1.582764,-0.3517254 0.582988,-0.061367 1.172418,0 1.758627,0 0.996555,0 1.99311,0 2.989665,0 0.527588,0 1.055176,0 1.582764,0 0.175863,0 0.356977,-0.042653 0.527588,0 0.08043,0.020107 0.09722,0.1496466 0.175863,0.1758627 0.800577,0 0.01006,-0.082902 0.527588,0.1758627 0.05243,0.026216 0.12025,-0.018538 0.175863,0 0.124353,0.041451 0.227371,0.1344114 0.351725,0.1758626 0.05561,0.018538 0.118992,-0.014218 0.175863,0 0.17984,0.04496 0.347747,0.1309025 0.527588,0.1758627 0.165518,0.04138 0.36207,-0.041379 0.527588,0 0.127166,0.031792 0.22319,0.1501557 0.351725,0.1758627 0.287413,0.057482 0.59496,-0.071088 0.879313,0 0.127167,0.031792 0.227372,0.1344114 0.351726,0.1758626 0.05561,0.018538 0.117242,0 0.175862,0 0.293105,0 0.591901,-0.057482 0.879314,0 0.128535,0.025707 0.22319,0.1501557 0.351725,0.1758627 0.172448,0.03449 0.353493,-0.024871 0.527588,0 0.239271,0.034182 0.463617,0.1458835 0.703451,0.1758627 0.232673,0.029084 0.468967,0 0.70345,0 0.234484,0.058621 0.46418,0.1416811 0.703451,0.1758626 0.174095,0.024871 0.354118,-0.028912 0.527588,0 0.241227,0.040205 1.353128,0.508034 1.406901,0.527588 0.522645,0.1900524 1.066414,0.3210478 1.582764,0.527588 0.02431,0.00972 0.695156,0.3500664 0.703451,0.3517254 0.172448,0.03449 0.354118,-0.028912 0.527588,0 0.325971,0.054328 0.592279,0.2082083 0.879313,0.3517253 0.117242,0.058621 0.224559,0.144071 0.351726,0.175863 0.113741,0.02843 0.234483,0 0.351725,0 0.05862,0 0.123431,-0.02622 0.175863,0 0.07415,0.03707 0.101712,0.138787 0.175862,0.175862 0.104865,0.05243 0.2405,-0.03707 0.351726,0 0.124353,0.04145 0.227371,0.134412 0.351725,0.175863 0.158276,0.05276 0.369312,-0.05276 0.527588,0 0.124354,0.04145 0.224559,0.144071 0.351725,0.175863 0.113742,0.02843 0.246862,-0.05243 0.351726,0 0.1483,0.07415 0.213767,0.259753 0.351725,0.351725 0.08991,0.05994 0.758943,-0.06019 0.879313,0 0.189047,0.09452 0.331345,0.273228 0.527588,0.351725 0.108857,0.04354 0.236761,-0.02299 0.351726,0 0.181775,0.03635 0.344734,0.145387 0.527588,0.175863 0.346939,0.05782 0.708236,-0.05782 1.055176,0 0.182853,0.03048 0.351725,0.117242 0.527588,0.175863 0.234483,0 0.471324,-0.03316 0.70345,0 0.183513,0.02622 0.344076,0.149646 0.527588,0.175862 0.232127,0.03316 0.468968,0 0.703451,0 0.703451,0 1.406901,0 2.110352,0 0.996555,0 1.99311,0 2.989665,0 0.410347,0 0.820693,0 1.231039,0 0.175863,0 0.351725,0 0.527588,0 0.05862,0 0.11838,0.0115 0.175863,0 0.529958,-0.105992 1.047738,-0.275293 1.582768,-0.351725 0.29015,-0.04145 0.5862,0 0.87931,0 0.35172,0 0.70345,0 1.05518,0 1.34828,0 2.69656,0 4.04484,0 0.35172,0 0.70466,0.02921 1.05517,0 0.35535,-0.02961 0.70219,-0.125435 1.05518,-0.175863 0.28209,-0.0403 0.59256,0 0.87931,0 0.0586,0 0.11724,0 0.17586,0 0.0586,0 0.12343,0.02622 0.17587,0 0.0742,-0.03707 0.10171,-0.138787 0.17586,-0.175862 0.0462,-0.02312 0.61149,0 0.70345,0 0.52759,0 1.05518,0 1.58276,0"
     id="path2812"
     transform="matrix(7.8125,0,0,7.8125,-1,-200)" />
  <path
     style="fill:none;stroke:#000000;stroke-width:10;stroke-linecap:butt;stroke-linejoin:miter;stroke-opacity:1;stroke-miterlimit:4;stroke-dasharray:none"
     d="m 35.524259,52.730779 c -0.0537,-0.332101 0.159442,-0.111768 0.351725,-0.175863 0.124354,-0.04145 0.227372,-0.134411 0.351725,-0.175862 0.158004,-0.05267 0.365603,0.0405 0.527588,0 0.499923,-0.124981 0.682785,-0.2969 1.231039,-0.351726 0.34998,-0.035 0.707541,0.05348 1.055176,0 0.421804,-0.06489 0.808016,-0.295322 1.231039,-0.351725 0.464853,-0.06198 0.937934,0 1.406901,0 0.527588,0 1.055176,0 1.582764,0 0.468967,0 0.937934,0 1.406901,0 0.410346,0 0.827312,-0.07341 1.231039,0 0.257932,0.0469 0.449117,0.288142 0.703451,0.351725 0.227482,0.05687 0.468967,0 0.70345,0 0.293105,0.05862 0.590937,0.09722 0.879314,0.175863 0.67456,0.183971 1.602847,0.598317 2.286214,0.703451 0.347636,0.05348 0.705196,-0.035 1.055176,0 2.04298,0.204298 -0.132844,0.175862 1.055176,0.175862 0.351726,0 0.703451,0 1.055176,0 0.117242,0 0.2405,-0.03708 0.351726,0 0.124353,0.04145 0.224558,0.144071 0.351725,0.175863 0.703451,0.175863 0.08793,-0.08793 0.527588,0 0.237006,0.0474 0.466444,0.128461 0.703451,0.175863 0.215373,0.04307 0.857681,0 1.055176,0 0.117241,0 0.2405,-0.03708 0.351725,0 0.07865,0.02622 0.101712,0.138787 0.175863,0.175862 0.05243,0.02622 0.117241,0 0.175862,0 0.175863,0 0.351726,0 0.527588,0 0.351726,0 0.703451,0 1.055176,0 0.234484,0 0.472158,-0.03855 0.703451,0 0.129297,0.02155 0.222428,0.154313 0.351725,0.175863 0.231293,0.03855 0.468967,0 0.703451,0 0.293104,0 0.586209,0 0.879313,0 0.996555,0 1.99311,0 2.989665,0 0.527588,0 1.055176,0 1.582764,0 0.175863,0 0.370292,0.07865 0.527588,0 0.117242,-0.05862 0.05862,-0.293105 0.175863,-0.351725 0.105787,-0.05289 1.093122,0.03448 1.231039,0 0.08043,-0.02011 0.09721,-0.149647 0.175862,-0.175863 0.111226,-0.03708 0.236761,0.02299 0.351726,0 0.181775,-0.03636 0.345812,-0.139508 0.527588,-0.175863 0.114965,-0.02299 0.237984,0.02844 0.351725,0 0.254333,-0.06358 0.449118,-0.288142 0.703451,-0.351725 0.113741,-0.02844 0.234483,0 0.351725,0 0.05862,0 0.123431,0.02622 0.175863,0 0.07415,-0.03708 0.101712,-0.138788 0.175862,-0.175863 0.104865,-0.05243 0.254175,0.06503 0.351726,0 0.137958,-0.09197 0.213767,-0.259753 0.351725,-0.351725 0.04878,-0.03252 0.117242,0 0.175863,0 0.117242,0 0.234483,0 0.351725,0 0.412429,0 -0.0829,0.04145 0.351725,-0.175863 0.111553,-0.05578 0.765069,0.05712 0.879314,0 0.07415,-0.03707 0.101712,-0.138787 0.175862,-0.175862 0.05243,-0.02622 0.117242,0 0.175863,0 0.117242,0 0.242869,0.04354 0.351725,0 0.196244,-0.0785 0.327074,-0.284888 0.527588,-0.351726 0.166838,-0.05561 0.351726,0 0.527588,0 0.117242,0 0.234484,0 0.351726,0 0.64483,0 1.289659,0 1.934489,0 0.762072,0 1.524143,0 2.286215,0 0.175862,0 0.351725,0 0.527588,0 0.05862,0 0.12025,-0.01854 0.175862,0 0.124354,0.04145 0.227372,0.134412 0.351726,0.175863 0.05561,0.01854 0.117242,0 0.175862,0 0.117242,0 0.234484,0 0.351726,0 0.293104,0 0.586209,0 0.879313,0 0.293105,0 0.586209,0 0.879313,0 0.117242,0 0.237985,-0.02844 0.351726,0 0.17984,0.04496 0.344075,0.149646 0.527588,0.175863 0.316388,0.0452 1.029868,0 1.406901,0 0.879313,0 1.758627,0 2.63794,0 0.234484,0 0.468967,0 0.703451,0 0.175862,0 0.35514,-0.03449 0.527588,0 0.128535,0.02571 0.22319,0.150155 0.351725,0.175862 0.172448,0.03449 0.351725,0 0.527588,0 0.234484,0 0.468967,0 0.703451,0 0.175862,0 0.356976,-0.04265 0.527588,0 0.08043,0.02011 0.09544,0.155756 0.175862,0.175863 0.170612,0.04265 0.351726,0 0.527588,0 0.293105,0 0.586209,0 0.879314,0 0.143979,0 0.765369,0.03798 0.879313,0 0.124354,-0.04145 0.227372,-0.134412 0.351725,-0.175863 0.05561,-0.01854 0.12025,0.01854 0.175863,0 0.124354,-0.04145 0.227372,-0.134411 0.351725,-0.175862 0.112306,-0.03744 0.832371,0.04694 0.879314,0 0.234483,-0.234484 -0.293105,-0.175863 0.175862,-0.175863"
     id="path2814"
     transform="matrix(7.8125,0,0,7.8125,-1,-200)" />
</svg>
