<?xml version="1.0" encoding="UTF-8" standalone="no"?>
<!-- Created with Inkscape (http://www.inkscape.org/) -->
<svg
   xmlns:dc="http://purl.org/dc/elements/1.1/"
   xmlns:cc="http://web.resource.org/cc/"
   xmlns:rdf="http://www.w3.org/1999/02/22-rdf-syntax-ns#"
   xmlns:svg="http://www.w3.org/2000/svg"
   xmlns="http://www.w3.org/2000/svg"
   xmlns:sodipodi="http://sodipodi.sourceforge.net/DTD/sodipodi-0.dtd"
   xmlns:inkscape="http://www.inkscape.org/namespaces/inkscape"
   id="svg2"
   sodipodi:version="0.32"
   inkscape:version="0.44"
   width="18"
   height="18"
   version="1.0"
   sodipodi:docbase="/home/ws/mscore/mscore/trunk/mscore/mscore/data"
   sodipodi:docname="midiin.svg">
  <metadata
     id="metadata7">
    <rdf:RDF>
      <cc:Work
         rdf:about="">
        <dc:format>image/svg+xml</dc:format>
        <dc:type
           rdf:resource="http://purl.org/dc/dcmitype/StillImage" />
      </cc:Work>
    </rdf:RDF>
  </metadata>
  <defs
     id="defs5" />
  <sodipodi:namedview
     inkscape:window-height="734"
     inkscape:window-width="947"
     inkscape:pageshadow="2"
     inkscape:pageopacity="0.0"
     guidetolerance="10.0"
     gridtolerance="10.0"
     objecttolerance="10.0"
     borderopacity="1.0"
     bordercolor="#666666"
     pagecolor="#ffffff"
     id="base"
     showgrid="true"
     inkscape:zoom="21"
     inkscape:cx="9"
     inkscape:cy="9.3265667"
     inkscape:window-x="278"
     inkscape:window-y="154"
     inkscape:current-layer="svg2" />
  <path
     sodipodi:type="arc"
     style="fill:#c3c8e1;fill-opacity:1;stroke:black;stroke-width:0.69233487;stroke-miterlimit:4;stroke-dasharray:none;stroke-opacity:1"
     id="path1877"
     sodipodi:cx="9.0476189"
     sodipodi:cy="8.7380953"
     sodipodi:rx="9.0476189"
     sodipodi:ry="8.7857141"
     d="M 18.095238 8.7380953 A 9.0476189 8.7857141 0 1 1  0,8.7380953 A 9.0476189 8.7857141 0 1 1  18.095238 8.7380953 z"
     transform="matrix(0.951892,4.874094e-3,0,0.972139,0.411454,0.413643)" />
  <path
     style="fill:none;fill-opacity:0.75;fill-rule:evenodd;stroke:black;stroke-width:1px;stroke-linecap:butt;stroke-linejoin:miter;stroke-opacity:1"
     d="M 7,17 L 7,15 L 11,15 L 11,17"
     id="path2768"
     sodipodi:nodetypes="cccc" />
  <path
     sodipodi:type="arc"
     style="fill:#bbd4c9;fill-opacity:1;stroke:black;stroke-width:0.89999998;stroke-miterlimit:4;stroke-dasharray:none;stroke-opacity:1"
     id="path2770"
     sodipodi:cx="8.6428576"
     sodipodi:cy="3.4523809"
     sodipodi:rx="0.5"
     sodipodi:ry="0.45238096"
     d="M 9.1428576 3.4523809 A 0.5 0.45238096 0 1 1  8.1428576,3.4523809 A 0.5 0.45238096 0 1 1  9.1428576 3.4523809 z"
     transform="translate(0.307142,-0.354762)" />
  <path
     transform="translate(6.407142,5.45)"
     d="M 9.1428576 3.4523809 A 0.5 0.45238096 0 1 1  8.1428576,3.4523809 A 0.5 0.45238096 0 1 1  9.1428576 3.4523809 z"
     sodipodi:ry="0.45238096"
     sodipodi:rx="0.5"
     sodipodi:cy="3.4523809"
     sodipodi:cx="8.6428576"
     id="path2772"
     style="fill:#bbd4c9;fill-opacity:1;stroke:black;stroke-width:0.89999998;stroke-miterlimit:4;stroke-dasharray:none;stroke-opacity:1"
     sodipodi:type="arc" />
  <path
     sodipodi:type="arc"
     style="fill:#bbd4c9;fill-opacity:1;stroke:black;stroke-width:0.89999998;stroke-miterlimit:4;stroke-dasharray:none;stroke-opacity:1"
     id="path2774"
     sodipodi:cx="8.6428576"
     sodipodi:cy="3.4523809"
     sodipodi:rx="0.5"
     sodipodi:ry="0.45238096"
     d="M 9.1428576 3.4523809 A 0.5 0.45238096 0 1 1  8.1428576,3.4523809 A 0.5 0.45238096 0 1 1  9.1428576 3.4523809 z"
     transform="translate(-5.592858,5.45)" />
  <path
     sodipodi:type="arc"
     style="fill:#bbd4c9;fill-opacity:1;stroke:black;stroke-width:0.89999998;stroke-miterlimit:4;stroke-dasharray:none;stroke-opacity:1"
     id="path2776"
     sodipodi:cx="8.6428576"
     sodipodi:cy="3.4523809"
     sodipodi:rx="0.5"
     sodipodi:ry="0.45238096"
     d="M 9.1428576 3.4523809 A 0.5 0.45238096 0 1 1  8.1428576,3.4523809 A 0.5 0.45238096 0 1 1  9.1428576 3.4523809 z"
     transform="translate(6.407142,5.45)" />
  <path
     transform="translate(-3.692858,1.645238)"
     d="M 9.1428576 3.4523809 A 0.5 0.45238096 0 1 1  8.1428576,3.4523809 A 0.5 0.45238096 0 1 1  9.1428576 3.4523809 z"
     sodipodi:ry="0.45238096"
     sodipodi:rx="0.5"
     sodipodi:cy="3.4523809"
     sodipodi:cx="8.6428576"
     id="path2778"
     style="fill:#bbd4c9;fill-opacity:1;stroke:black;stroke-width:0.89999998;stroke-miterlimit:4;stroke-dasharray:none;stroke-opacity:1"
     sodipodi:type="arc" />
  <path
     transform="translate(5.307142,1.645238)"
     d="M 9.1428576 3.4523809 A 0.5 0.45238096 0 1 1  8.1428576,3.4523809 A 0.5 0.45238096 0 1 1  9.1428576 3.4523809 z"
     sodipodi:ry="0.45238096"
     sodipodi:rx="0.5"
     sodipodi:cy="3.4523809"
     sodipodi:cx="8.6428576"
     id="path2780"
     style="fill:#bbd4c9;fill-opacity:1;stroke:black;stroke-width:0.89999998;stroke-miterlimit:4;stroke-dasharray:none;stroke-opacity:1"
     sodipodi:type="arc" />
</svg>
