/* XPM */
static char * mscore_xpm[] = {
"32 32 351 2",
"  	c None",
". 	c #FFFFF5",
"+ 	c #E6D9B0",
"@ 	c #EB9658",
"# 	c #F9B36D",
"$ 	c #F6B06E",
"% 	c #EB995C",
"& 	c #E69359",
"* 	c #FCE2C6",
"= 	c #FFFFF7",
"- 	c #ECE2B9",
"; 	c #907537",
"> 	c #F1FAFF",
", 	c #DA9D77",
"' 	c #DD864C",
") 	c #E79A63",
"! 	c #E38D54",
"~ 	c #E39058",
"{ 	c #E59258",
"] 	c #FEF4E7",
"^ 	c #FFFFF6",
"/ 	c #E2D5A7",
"( 	c #835E39",
"_ 	c #5E3E34",
": 	c #F2ECD1",
"< 	c #FFFFFA",
"[ 	c #FFFFFF",
"} 	c #E2CAC1",
"| 	c #CB977F",
"1 	c #B35D38",
"2 	c #D17B4D",
"3 	c #E29057",
"4 	c #FCECDE",
"5 	c #FFFEF8",
"6 	c #FFFFF1",
"7 	c #CFBD89",
"8 	c #8F7533",
"9 	c #614035",
"0 	c #634234",
"a 	c #3B312C",
"b 	c #DAC995",
"c 	c #C4AF74",
"d 	c #AD9356",
"e 	c #AC9152",
"f 	c #BDA669",
"g 	c #DDD1A3",
"h 	c #F3EFD5",
"i 	c #C49F8E",
"j 	c #A35636",
"k 	c #DE8E5C",
"l 	c #F7B87D",
"m 	c #FDF4EA",
"n 	c #F8F0D2",
"o 	c #B9A266",
"p 	c #6E4537",
"q 	c #624134",
"r 	c #3A2F2B",
"s 	c #8C703A",
"t 	c #806433",
"u 	c #816634",
"v 	c #6E5A33",
"w 	c #745D33",
"x 	c #8D7037",
"y 	c #A78B4B",
"z 	c #D6C68E",
"A 	c #EFEAD4",
"B 	c #A37A68",
"C 	c #B4633C",
"D 	c #EDA56B",
"E 	c #F2994E",
"F 	c #EA944F",
"G 	c #F4D7BC",
"H 	c #FFFBE6",
"I 	c #D9C997",
"J 	c #967B40",
"K 	c #4A4848",
"L 	c #573C33",
"M 	c #834F3B",
"N 	c #5E3F33",
"O 	c #382E2A",
"P 	c #AF9960",
"Q 	c #816636",
"R 	c #8E6F38",
"S 	c #292929",
"T 	c #212224",
"U 	c #262729",
"V 	c #594B33",
"W 	c #856D3B",
"X 	c #C7B073",
"Y 	c #FAF4D6",
"Z 	c #FDFEF9",
"` 	c #EEDCD3",
" .	c #F8ECE3",
"..	c #E7D9AE",
"+.	c #A58B51",
"@.	c #6F572F",
"#.	c #4C4B4A",
"$.	c #664335",
"%.	c #7A4B39",
"&.	c #513A30",
"*.	c #332C29",
"=.	c #7F6433",
"-.	c #836A39",
";.	c #1F2124",
">.	c #2B2A2A",
",.	c #393836",
"'.	c #393939",
").	c #262B35",
"!.	c #433725",
"~.	c #998552",
"{.	c #D2BE8A",
"].	c #F2E8C4",
"^.	c #F4EAC8",
"/.	c #D8C797",
"(.	c #A48B53",
"_.	c #755C2E",
":.	c #505153",
"<.	c #565554",
"[.	c #373737",
"}.	c #573D32",
"|.	c #40322C",
"1.	c #2C2928",
"2.	c #846835",
"3.	c #6D5D3A",
"4.	c #242324",
"5.	c #42413F",
"6.	c #5D5C5C",
"7.	c #443F35",
"8.	c #5E4C2D",
"9.	c #68542F",
"0.	c #6C562E",
"a.	c #5C5343",
"b.	c #5A5958",
"c.	c #41332C",
"d.	c #2C2827",
"e.	c #997E44",
"f.	c #4E4330",
"g.	c #272626",
"h.	c #5C554A",
"i.	c #656566",
"j.	c #606060",
"k.	c #5D5D5C",
"l.	c #545453",
"m.	c #4D4D4D",
"n.	c #3E3E3F",
"o.	c #3E302A",
"p.	c #232424",
"q.	c #252525",
"r.	c #A78B4D",
"s.	c #3C352E",
"t.	c #39322C",
"u.	c #575757",
"v.	c #595959",
"w.	c #5F5F5F",
"x.	c #545454",
"y.	c #585858",
"z.	c #535353",
"A.	c #4A4A4A",
"B.	c #574941",
"C.	c #9F835E",
"D.	c #3B3632",
"E.	c #1B1E23",
"F.	c #AC9150",
"G.	c #453A31",
"H.	c #544633",
"I.	c #565656",
"J.	c #4F4F4F",
"K.	c #484848",
"L.	c #B18D65",
"M.	c #B49E5E",
"N.	c #B09655",
"O.	c #9F844D",
"P.	c #816A3E",
"Q.	c #826B3E",
"R.	c #A78C4E",
"S.	c #564636",
"T.	c #625139",
"U.	c #525252",
"V.	c #505050",
"W.	c #454545",
"X.	c #414141",
"Y.	c #444444",
"Z.	c #30262F",
"`.	c #C2A96D",
" +	c #A78E51",
".+	c #9B7E46",
"++	c #816534",
"@+	c #806533",
"#+	c #A18649",
"$+	c #6C583D",
"%+	c #69543A",
"&+	c #464646",
"*+	c #4B4B4B",
"=+	c #474747",
"-+	c #89694D",
";+	c #B29A5A",
">+	c #A0854A",
",+	c #8B6E3A",
"'+	c #9B8045",
")+	c #7E6844",
"!+	c #6A573D",
"~+	c #434343",
"{+	c #3F2122",
"]+	c #A89461",
"^+	c #A2884B",
"/+	c #967941",
"(+	c #977A41",
"_+	c #937749",
":+	c #624D37",
"<+	c #424242",
"[+	c #3D3D3D",
"}+	c #735946",
"|+	c #AE9655",
"1+	c #9B7F46",
"2+	c #856936",
"3+	c #90733D",
"4+	c #A88C4F",
"5+	c #594333",
"6+	c #3F3F3F",
"7+	c #3E3E3E",
"8+	c #3F3130",
"9+	c #A38C58",
"0+	c #9D8147",
"a+	c #8E723C",
"b+	c #7E6434",
"c+	c #8D703A",
"d+	c #6B503D",
"e+	c #6D5944",
"f+	c #A68B4E",
"g+	c #967942",
"h+	c #886B38",
"i+	c #987C42",
"j+	c #775E3F",
"k+	c #3B3B3B",
"l+	c #3C3C3C",
"m+	c #3A3A3A",
"n+	c #3A2D2F",
"o+	c #A38852",
"p+	c #977C43",
"q+	c #876B38",
"r+	c #8F723C",
"s+	c #947647",
"t+	c #44302D",
"u+	c #383838",
"v+	c #373838",
"w+	c #333234",
"x+	c #6D5C44",
"y+	c #9E8246",
"z+	c #896C38",
"A+	c #A18648",
"B+	c #573D33",
"C+	c #363636",
"D+	c #343434",
"E+	c #3F3433",
"F+	c #937640",
"G+	c #91753E",
"H+	c #7A5E3F",
"I+	c #593C32",
"J+	c #353535",
"K+	c #323232",
"L+	c #323333",
"M+	c #2F2B2F",
"N+	c #8A7449",
"O+	c #947840",
"P+	c #886C38",
"Q+	c #876A38",
"R+	c #987B46",
"S+	c #563831",
"T+	c #333333",
"U+	c #62533F",
"V+	c #9E8145",
"W+	c #8E713C",
"X+	c #8F723B",
"Y+	c #72583E",
"Z+	c #5E3E33",
"`+	c #2E2E2F",
" @	c #313131",
".@	c #2F3234",
"+@	c #3F332C",
"@@	c #A38549",
"#@	c #8F723D",
"$@	c #7F6534",
"%@	c #836635",
"&@	c #997D44",
"*@	c #694638",
"=@	c #7C4D3A",
"-@	c #C9B48A",
";@	c #58595F",
">@	c #64483D",
",@	c #D6CBA6",
"'@	c #BAA472",
")@	c #8F743D",
"!@	c #846936",
"~@	c #9D8347",
"{@	c #D5C08E",
"]@	c #A86344",
"^@	c #985239",
"/@	c #B79567",
"(@	c #D3CAA3",
"_@	c #8F7D6F",
":@	c #E2D2B9",
"<@	c #F7F1D6",
"[@	c #EBE0B8",
"}@	c #AA9053",
"|@	c #8B6F3A",
"1@	c #AD9455",
"2@	c #EEE1BD",
"3@	c #C88661",
"4@	c #B15F3E",
"5@	c #815C4A",
"6@	c #D9C9AD",
"7@	c #FBF5DF",
"8@	c #F6EFD1",
"9@	c #BEA86A",
"0@	c #90733E",
"a@	c #7D6234",
"b@	c #93773F",
"c@	c #BBA464",
"d@	c #FDFCE6",
"e@	c #ECCBB2",
"f@	c #E3C39A",
"g@	c #FAF4D9",
"h@	c #FAF3D3",
"i@	c #D8C58B",
"j@	c #927A44",
"k@	c #7C6234",
"l@	c #957940",
"m@	c #BEA869",
"n@	c #F5EED3",
"o@	c #E9E3D3",
"p@	c #7D6449",
"q@	c #553E31",
"r@	c #52372F",
"s@	c #543C31",
"t@	c #7B6133",
"u@	c #B69E5F",
"v@	c #EDDFB1",
"w@	c #C9BFAD",
"x@	c #CF7B52",
"y@	c #D38156",
"z@	c #A65F43",
"A@	c #774936",
"B@	c #573D34",
"C@	c #6F5A30",
"D@	c #6D5933",
"E@	c #605439",
"F@	c #1E1E1F",
"G@	c #43322C",
"H@	c #2C2A2A",
"I@	c #2B2F30",
"J@	c #404345",
"                                                    .           ",
"                                                  . +           ",
"          @ # $ % &                           * = - ;           ",
"        > , ' ) ! ~ {                       ] ^ / ( _           ",
"      : < [ [ } | 1 2 3                 4 5 6 7 8 9 0 a         ",
"      b c d e f g h i j k l           m = n o     p q r         ",
"      s t u v w x y z A B C D E F G < H I J K   L M N O         ",
"      P Q R S T U V W X Y Z `  .[ 6 ..+.@.  #.  $.%.&.*.        ",
"        =.-.;.>.,.'.).!.~.{.].^./.(._.  :.<.[.  }.q |.1.        ",
"        2.3.4.5.    6.    7.8.9.0.a.  b.        O c.d.          ",
"        e.f.g.h.i.    j.k.        l.  m.      n.o.p.q.          ",
"        r.s.t.  u.v.w.x.y.      z.        A.  B.C.D.E.          ",
"        F.G.H.  <.  I.I.      m.J.        K.  L.M.N.O.P.Q.      ",
"        R.S.T.    U.    V.V.W.          X.Y.Z.`. +.+++@+        ",
"        #+$+%+    &+*+A.    A.    =+&+      -+;+>+,+@+u         ",
"        '+)+!+    =+  Y.K.W.  W.  ~+      {+]+^+/+@+u           ",
"        (+_+:+      &+<+  W.~+~+    [+    }+|+1+2+u             ",
"        3+4+5+      [+<+X.  6+7+        8+9+0+a+@+b+            ",
"        c+#+d+      [+  7+6+7+          e+f+g+u u               ",
"        h+i+j+        k+    l+[+m+'.  n+o+p+q+@+                ",
"          r+s+t+      [.u+u+    u+v+w+x+y+3+@+u                 ",
"          z+A+B+      [.  C+C+D+D+  E+R.F+u u                   ",
"          2.G+H+I+      J+  K+[.L+M+N+O+P+@+                    ",
"            Q+R+S+      T+T+T+    U+V+W+@+                      ",
"            u X+Y+Z+    `+   @.@+@@@#@u $@                      ",
"            @+%@&@*@=@-@  ;@  >@,@'@)@@+                        ",
"              !@~@{@]@^@/@(@_@:@<@[@}@                          ",
"                |@1@2@3@4@5@6@7@8@9@0@                          ",
"                a@b@c@d@e@f@g@h@i@j@                            ",
"                  k@l@m@n@[ o@p@q@r@s@                          ",
"                    t@r+u@v@w@x@y@z@A@B@                        ",
"                      C@D@E@F@G@H@I@J@                          "};
