<?xml version="1.0" encoding="UTF-8" standalone="no"?>
<!-- Created with Sodipodi ("http://www.sodipodi.com/") -->
<svg
   xmlns:dc="http://purl.org/dc/elements/1.1/"
   xmlns:cc="http://creativecommons.org/ns#"
   xmlns:rdf="http://www.w3.org/1999/02/22-rdf-syntax-ns#"
   xmlns:svg="http://www.w3.org/2000/svg"
   xmlns="http://www.w3.org/2000/svg"
   xmlns:xlink="http://www.w3.org/1999/xlink"
   xmlns:sodipodi="http://sodipodi.sourceforge.net/DTD/sodipodi-0.dtd"
   xmlns:inkscape="http://www.inkscape.org/namespaces/inkscape"
   width="120"
   height="120"
   id="svg1"
   sodipodi:version="0.32"
   sodipodi:docname="filesaveonline6.svg"
   sodipodi:docbase="/home/ws/mscore/mscore/trunk/mscore/mscore/data"
   inkscape:version="0.46"
   version="1.0"
   inkscape:output_extension="org.inkscape.output.svg.inkscape">
  <sodipodi:namedview
     id="base"
     width="120px"
     height="120px"
     inkscape:zoom="2.3625"
     inkscape:cx="60.740741"
     inkscape:cy="46.137566"
     inkscape:window-width="1014"
     inkscape:window-height="669"
     inkscape:window-x="219"
     inkscape:window-y="61"
     inkscape:current-layer="svg1"
     showgrid="false">
    <sodipodi:guide
       id="sodipodi:guide411"
       position="26.447950"
       orientation="horizontal" />
  </sodipodi:namedview>
  <metadata
     id="metadata82">
    <rdf:RDF>
      <cc:Work
         rdf:about="">
        <dc:format>image/svg+xml</dc:format>
        <dc:type
           rdf:resource="http://purl.org/dc/dcmitype/StillImage" />
      </cc:Work>
    </rdf:RDF>
  </metadata>
  <defs
     id="defs22">
    <radialGradient
       id="radialGradient3637"
       cx="685.64941"
       cy="995.40723"
       r="96.022903"
       gradientTransform="matrix(0.315,0,0,0.315,-193.9387,-303.1233)"
       gradientUnits="userSpaceOnUse">
      <stop
         offset="0"
         style="stop-color:#ffffff"
         id="stop3639" />
      <stop
         offset="0.99440026"
         style="stop-color:#78edff"
         id="stop3641" />
      <stop
         offset="0.9944"
         style="stop-color:#ffffff"
         id="stop3643" />
    </radialGradient>
    <linearGradient
       gradientTransform="matrix(0.315,0,0,-0.315,-250.1662,-358.4061)"
       y2="-1269.558"
       x2="868.99609"
       y1="-1149.4053"
       x1="868.99609"
       gradientUnits="userSpaceOnUse"
       id="SVGID_6_">
      <stop
         id="stop2610"
         style="stop-color:#007600"
         offset="0" />
      <stop
         id="stop2612"
         style="stop-color:#004700"
         offset="0.2" />
      <stop
         id="stop2614"
         style="stop-color:#00d200"
         offset="1" />
    </linearGradient>
    <clipPath
       id="SVGID_4_">
      <use
         height="48"
         width="48"
         y="0"
         x="0"
         style="overflow:visible"
         id="use2598"
         overflow="visible"
         xlink:href="#SVGID_3_" />
    </clipPath>
    <radialGradient
       gradientUnits="userSpaceOnUse"
       gradientTransform="matrix(0.315,0,0,0.315,-193.9387,-303.1233)"
       r="96.022903"
       cy="995.40723"
       cx="685.64941"
       id="SVGID_5_">
      <stop
         id="stop2601"
         style="stop-color:#ffffff"
         offset="0" />
      <stop
         id="stop2603"
         style="stop-color:#61c0ff"
         offset="0.5955" />
      <stop
         id="stop2605"
         style="stop-color:#dfffff"
         offset="0.9944" />
    </radialGradient>
    <inkscape:perspective
       id="perspective83"
       inkscape:persp3d-origin="60 : 40 : 1"
       inkscape:vp_z="120 : 60 : 1"
       inkscape:vp_y="0 : 1000 : 0"
       inkscape:vp_x="0 : 60 : 1"
       sodipodi:type="inkscape:persp3d" />
    <linearGradient
       id="linearGradient408">
      <stop
         id="stop409"
         style="stop-color:#fff6c6;stop-opacity:0.992157;"
         offset="0.000000" />
      <stop
         id="stop410"
         style="stop-color:#ffbb1d;stop-opacity:0.952941;"
         offset="1.000000" />
    </linearGradient>
    <linearGradient
       id="linearGradient458">
      <stop
         id="stop459"
         style="stop-color:#e4ffff;stop-opacity:0.690196;"
         offset="0.000000" />
      <stop
         id="stop460"
         style="stop-color:#0d668b;stop-opacity:0.780392;"
         offset="1.000000" />
    </linearGradient>
    <linearGradient
       id="linearGradient320">
      <stop
         id="stop321"
         style="stop-color:#6ab0c6;stop-opacity:0.882353;"
         offset="0.000000" />
      <stop
         id="stop322"
         style="stop-color:#0d668b;stop-opacity:0.870588;"
         offset="1.000000" />
    </linearGradient>
    <linearGradient
       id="linearGradient314">
      <stop
         id="stop315"
         style="stop-color:#0d668b;stop-opacity:1;"
         offset="0.000000" />
      <stop
         id="stop316"
         style="stop-color:#0d668b;stop-opacity:1;"
         offset="1.000000" />
    </linearGradient>
    <linearGradient
       id="linearGradient310">
      <stop
         id="stop311"
         style="stop-color:#0d668b;stop-opacity:0.780392;"
         offset="0.000000" />
      <stop
         id="stop312"
         style="stop-color:#e4ffff;stop-opacity:0.690196;"
         offset="1.000000" />
    </linearGradient>
    <linearGradient
       id="linearGradient307">
      <stop
         id="stop308"
         style="stop-color:#e4ffff;stop-opacity:1;"
         offset="0.000000" />
      <stop
         id="stop309"
         style="stop-color:#0d668b;stop-opacity:1;"
         offset="1.000000" />
    </linearGradient>
    <linearGradient
       id="linearGradient291">
      <stop
         id="stop292"
         style="stop-color:#0d668b;stop-opacity:0.615686;"
         offset="0.000000" />
      <stop
         id="stop293"
         style="stop-color:#004c74;stop-opacity:0.917647;"
         offset="1.000000" />
    </linearGradient>
    <linearGradient
       id="linearGradient235">
      <stop
         id="stop236"
         style="stop-color:#ffffff;stop-opacity:1;"
         offset="0.000000" />
      <stop
         id="stop237"
         style="stop-color:#a8fbff;stop-opacity:0.992157;"
         offset="1.000000" />
    </linearGradient>
    <linearGradient
       id="linearGradient232">
      <stop
         id="stop233"
         style="stop-color:#ffffff;stop-opacity:1;"
         offset="0.000000" />
      <stop
         id="stop234"
         style="stop-color:#c2c6c9;stop-opacity:1;"
         offset="1.000000" />
    </linearGradient>
    <linearGradient
       id="linearGradient216">
      <stop
         id="stop217"
         style="stop-color:#ffffff;stop-opacity:1;"
         offset="0.000000" />
      <stop
         id="stop218"
         style="stop-color:#a4a4a4;stop-opacity:1;"
         offset="1.000000" />
    </linearGradient>
    <linearGradient
       id="linearGradient211">
      <stop
         id="stop212"
         style="stop-color:#efffff;stop-opacity:0.458824;"
         offset="0.000000" />
      <stop
         id="stop213"
         style="stop-color:#33b8ce;stop-opacity:0.823529;"
         offset="1.000000" />
    </linearGradient>
    <linearGradient
       id="linearGradient168">
      <stop
         id="stop169"
         style="stop-color:#e4ffff;stop-opacity:0.87451;"
         offset="0.000000" />
      <stop
         id="stop170"
         style="stop-color:#0d668b;stop-opacity:0.866667;"
         offset="1.000000" />
    </linearGradient>
    <linearGradient
       id="linearGradient90">
      <stop
         id="stop91"
         style="stop-color:#e4ffff;stop-opacity:1;"
         offset="0.000000" />
      <stop
         id="stop92"
         style="stop-color:#0077a8;stop-opacity:0.905882;"
         offset="1.000000" />
    </linearGradient>
    <linearGradient
       id="linearGradient67">
      <stop
         id="stop70"
         style="stop-color:#efffff;stop-opacity:0.898039;"
         offset="0.000000" />
      <stop
         id="stop69"
         style="stop-color:#33b8ce;stop-opacity:0.952941;"
         offset="1.000000" />
    </linearGradient>
    <linearGradient
       id="linearGradient57">
      <stop
         id="stop59"
         style="stop-color:#ffffff;stop-opacity:1;"
         offset="0.000000" />
      <stop
         id="stop58"
         style="stop-color:#868686;stop-opacity:1;"
         offset="1.000000" />
    </linearGradient>
    <defs
       id="defs4">
      <radialGradient
         xlink:href="#linearGradient67"
         gradientUnits="userSpaceOnUse"
         fy="1973.58"
         fx="869.60303"
         r="2106.6499"
         cy="1973.58"
         cx="869.60303"
         id="1" />
    </defs>
    <defs
       id="defs11">
      <linearGradient
         gradientUnits="userSpaceOnUse"
         y2="34.100899"
         x2="375.686"
         y1="119.147"
         x1="255.84801"
         id="2">
        <stop
           id="stop13"
           style="stop-color:#ffffff"
           offset="0" />
        <stop
           id="stop14"
           style="stop-color:#0a0a0a"
           offset="1" />
      </linearGradient>
    </defs>
    <defs
       id="defs16">
      <linearGradient
         xlink:href="#linearGradient57"
         gradientUnits="userSpaceOnUse"
         y2="30.8643"
         x2="356.48099"
         y1="109.384"
         x1="275.05301"
         id="3" />
    </defs>
    <radialGradient
       spreadMethod="pad"
       gradientTransform="matrix(0.299522,-7.277263e-2,0,0.346646,28.4112,-45.4513)"
       gradientUnits="userSpaceOnUse"
       r="202.19385"
       fy="225.88168"
       fx="-53.452854"
       cy="225.88168"
       cx="-53.452854"
       id="radialGradient88"
       xlink:href="#linearGradient291" />
    <linearGradient
       spreadMethod="pad"
       gradientTransform="matrix(1.72489,1.17189,-5.75163e-2,0.540671,0.503708,0.486073)"
       gradientUnits="objectBoundingBox"
       y2="1.23657"
       x2="0.241703"
       y1="-0.109747"
       x1="-0.258715"
       id="linearGradient89"
       xlink:href="#linearGradient310" />
    <linearGradient
       spreadMethod="pad"
       gradientTransform="matrix(1.902162,-1.339628e-2,4.404077e-2,0.251514,-66.20389,-37.2798)"
       gradientUnits="userSpaceOnUse"
       y2="287.11353"
       x2="53.019871"
       y1="343.64432"
       x1="52.739735"
       id="linearGradient210"
       xlink:href="#linearGradient408" />
    <linearGradient
       spreadMethod="pad"
       gradientUnits="objectBoundingBox"
       y2="0"
       x2="1"
       y1="0"
       x1="0"
       id="linearGradient215"
       xlink:href="#linearGradient320" />
    <linearGradient
       gradientTransform="matrix(0.287929,-8.972898e-2,0,0.277722,54.9543,7.178351)"
       spreadMethod="pad"
       gradientUnits="userSpaceOnUse"
       id="linearGradient231"
       xlink:href="#linearGradient216"
       y2="514.5177"
       x2="119.32612"
       y1="341.18823"
       x1="-40.478325" />
    <linearGradient
       spreadMethod="pad"
       gradientTransform="matrix(-1.66776,-1.248,5.90927e-2,-0.555388,0.492831,1.02592)"
       gradientUnits="objectBoundingBox"
       id="linearGradient238"
       xlink:href="#linearGradient310"
       y2="1.2801"
       x2="0.25021201"
       y1="-0.113611"
       x1="-0.26782301" />
    <radialGradient
       spreadMethod="pad"
       gradientTransform="matrix(0.945877,-9.10109e-7,0,1.05722,0.264368,0.249996)"
       gradientUnits="objectBoundingBox"
       id="radialGradient280"
       xlink:href="#linearGradient232"
       fy="1.05578e-10"
       fx="3.0398102e-14"
       r="0.77334601"
       cy="1.05578e-10"
       cx="3.0398102e-14" />
    <linearGradient
       spreadMethod="pad"
       gradientTransform="translate(2.74928e-4,0)"
       gradientUnits="objectBoundingBox"
       id="linearGradient290"
       xlink:href="#linearGradient216"
       y2="0.49218801"
       x2="1.28544"
       y1="0.49218801"
       x1="-0.000235766" />
    <linearGradient
       spreadMethod="pad"
       gradientTransform="translate(-2.65767,-0.201237)"
       gradientUnits="objectBoundingBox"
       y2="0.82825398"
       x2="3.0476601"
       y1="0.60926002"
       x1="3.2426901"
       id="linearGradient305"
       xlink:href="#linearGradient320" />
    <radialGradient
       spreadMethod="pad"
       gradientTransform="matrix(0.959059,0,0,1.04269,0.394554,0.45127)"
       gradientUnits="objectBoundingBox"
       r="0.30980599"
       fy="2.7464599e-09"
       fx="1.13941e-09"
       cy="2.7464599e-09"
       cx="1.13941e-09"
       id="radialGradient306"
       xlink:href="#linearGradient408" />
    <radialGradient
       spreadMethod="pad"
       gradientTransform="matrix(1.72489,1.17189,-5.75163e-2,0.540669,0.503699,0.486073)"
       gradientUnits="objectBoundingBox"
       r="0.30992299"
       fy="6.6488499e-09"
       fx="-2.66079e-08"
       cy="6.6488499e-09"
       cx="-2.66079e-08"
       id="radialGradient317"
       xlink:href="#linearGradient458" />
    <linearGradient
       spreadMethod="pad"
       gradientTransform="matrix(1.07397,2.17354e-3,-3.16583e-4,0.931124,0.53185,0.277306)"
       gradientUnits="objectBoundingBox"
       id="linearGradient319"
       xlink:href="#linearGradient314"
       y2="0.31132501"
       x2="-0.061269201"
       y1="0.0341933"
       x1="-0.0287253" />
    <linearGradient
       id="linearGradient416"
       xlink:href="#linearGradient408"
       y2="1.23657"
       x2="0.241703"
       y1="-0.109747"
       x1="-0.258715" />
    <linearGradient
       spreadMethod="pad"
       gradientTransform="matrix(0.407336,-0.112959,0,0.349021,48.6308,-81.8436)"
       gradientUnits="userSpaceOnUse"
       id="linearGradient418"
       xlink:href="#linearGradient232"
       y2="505.37048"
       x2="137.4688"
       y1="348.34726"
       x1="-27.638033" />
    <radialGradient
       gradientUnits="userSpaceOnUse"
       gradientTransform="matrix(0.315,0,0,0.315,-193.9387,-303.1233)"
       r="96.022903"
       cy="995.40723"
       cx="685.64941"
       id="SVGID_5_-257">
      <stop
         id="stop3019"
         style="stop-color:#ffffff"
         offset="0" />
      <stop
         id="stop3021"
         style="stop-color:#6cd5ff"
         offset="0.5955" />
      <stop
         id="stop3023"
         style="stop-color:#f8ffff"
         offset="0.9944" />
    </radialGradient>
    <linearGradient
       gradientTransform="matrix(0.315,0,0,-0.315,-250.1662,-358.4061)"
       y2="-1269.558"
       x2="868.99609"
       y1="-1149.4053"
       x1="868.99609"
       gradientUnits="userSpaceOnUse"
       id="SVGID_6_-366">
      <stop
         id="stop3026"
         style="stop-color:#008300"
         offset="0" />
      <stop
         id="stop3028"
         style="stop-color:#004f00"
         offset="0.2" />
      <stop
         id="stop3030"
         style="stop-color:#00e900"
         offset="1" />
    </linearGradient>
    <radialGradient
       spreadMethod="pad"
       gradientTransform="matrix(0.299522,-7.277263e-2,0,0.346646,28.4112,-45.4513)"
       gradientUnits="userSpaceOnUse"
       r="202.19385"
       fy="225.88168"
       fx="-53.452854"
       cy="225.88168"
       cx="-53.452854"
       id="radialGradient88-939"
       xlink:href="#linearGradient291-13" />
    <linearGradient
       id="linearGradient291-13">
      <stop
         id="stop3266"
         style="stop-color:#0e719a;stop-opacity:0.615686;"
         offset="0.000000" />
      <stop
         id="stop3268"
         style="stop-color:#005481;stop-opacity:0.917647;"
         offset="1.000000" />
    </linearGradient>
    <linearGradient
       gradientTransform="matrix(0.287929,-8.972898e-2,0,0.277722,54.9543,7.178351)"
       spreadMethod="pad"
       gradientUnits="userSpaceOnUse"
       id="linearGradient231-432"
       xlink:href="#linearGradient216-853"
       y2="514.5177"
       x2="119.32612"
       y1="341.18823"
       x1="-40.478325" />
    <linearGradient
       id="linearGradient216-853">
      <stop
         id="stop3272"
         style="stop-color:#ffffff;stop-opacity:1;"
         offset="0.000000" />
      <stop
         id="stop3274"
         style="stop-color:#b6b6b6;stop-opacity:1;"
         offset="1.000000" />
    </linearGradient>
    <linearGradient
       spreadMethod="pad"
       gradientTransform="matrix(0.407336,-0.112959,0,0.349021,48.6308,-81.8436)"
       gradientUnits="userSpaceOnUse"
       id="linearGradient418-71"
       xlink:href="#linearGradient232-732"
       y2="505.37048"
       x2="137.4688"
       y1="348.34726"
       x1="-27.638033" />
    <linearGradient
       id="linearGradient232-732">
      <stop
         id="stop3278"
         style="stop-color:#ffffff;stop-opacity:1;"
         offset="0.000000" />
      <stop
         id="stop3280"
         style="stop-color:#d8dcdf;stop-opacity:1;"
         offset="1.000000" />
    </linearGradient>
    <linearGradient
       spreadMethod="pad"
       gradientTransform="matrix(1.902162,-1.339628e-2,4.404077e-2,0.251514,-66.20389,-37.2798)"
       gradientUnits="userSpaceOnUse"
       y2="287.11353"
       x2="53.019871"
       y1="343.64432"
       x1="52.739735"
       id="linearGradient210-865"
       xlink:href="#linearGradient408-963" />
    <linearGradient
       id="linearGradient408-963">
      <stop
         id="stop3284"
         style="stop-color:#ffffdc;stop-opacity:0.992157;"
         offset="0.000000" />
      <stop
         id="stop3286"
         style="stop-color:#ffd020;stop-opacity:0.952941;"
         offset="1.000000" />
    </linearGradient>
    <radialGradient
       gradientUnits="userSpaceOnUse"
       gradientTransform="matrix(0.315,0,0,0.315,-193.9387,-303.1233)"
       r="96.022903"
       cy="995.40723"
       cx="685.64941"
       id="SVGID_5_-257-696">
      <stop
         id="stop3289"
         style="stop-color:#ffffff"
         offset="0" />
      <stop
         id="stop3291"
         style="stop-color:#78edff"
         offset="0.5955" />
      <stop
         id="stop3293"
         style="stop-color:#ffffff"
         offset="0.9944" />
    </radialGradient>
    <linearGradient
       gradientTransform="matrix(0.315,0,0,-0.315,-250.1662,-358.4061)"
       y2="-1269.558"
       x2="868.99609"
       y1="-1149.4053"
       x1="868.99609"
       gradientUnits="userSpaceOnUse"
       id="SVGID_6_-366-235">
      <stop
         id="stop3296"
         style="stop-color:#009200"
         offset="0" />
      <stop
         id="stop3298"
         style="stop-color:#005800"
         offset="0.2" />
      <stop
         id="stop3300"
         style="stop-color:#00ff00"
         offset="1" />
    </linearGradient>
    <defs
       id="defs2594">
      <path
         id="SVGID_3_"
         d="M 23.589,42.098 C 33.866,42.098 42.205,33.725 42.205,23.453 C 42.205,13.246 33.867,4.872 23.589,4.872 C 13.383,4.872 4.974,13.246 4.974,23.453 C 4.974,33.725 13.384,42.098 23.589,42.098 z" />
    </defs>
    <clipPath
       id="clipPath2658">
      <use
         xlink:href="#SVGID_3_"
         overflow="visible"
         id="use2660"
         style="overflow:visible"
         x="0"
         y="0"
         width="48"
         height="48" />
    </clipPath>
    <radialGradient
       id="radialGradient2662"
       cx="685.64941"
       cy="995.40723"
       r="96.022903"
       gradientTransform="matrix(0.315,0,0,0.315,-193.9387,-303.1233)"
       gradientUnits="userSpaceOnUse">
      <stop
         offset="0"
         style="stop-color:#ffffff"
         id="stop2664" />
      <stop
         offset="0.5955"
         style="stop-color:#6cd5ff"
         id="stop2666" />
      <stop
         offset="0.9944"
         style="stop-color:#f8ffff"
         id="stop2668" />
    </radialGradient>
    <linearGradient
       id="linearGradient2671"
       gradientUnits="userSpaceOnUse"
       x1="868.99609"
       y1="-1149.4053"
       x2="868.99609"
       y2="-1269.558"
       gradientTransform="matrix(0.315,0,0,-0.315,-250.1662,-358.4061)">
      <stop
         offset="0"
         style="stop-color:#008300"
         id="stop2673" />
      <stop
         offset="0.2"
         style="stop-color:#004f00"
         id="stop2675" />
      <stop
         offset="1"
         style="stop-color:#00e900"
         id="stop2677" />
    </linearGradient>
    <radialGradient
       fy="988.70068"
       fx="600.35101"
       r="96.022903"
       cy="988.70068"
       cx="600.35101"
       gradientTransform="matrix(0.5651637,0.7562621,-0.4022553,0.3174733,40.995102,-802.04245)"
       gradientUnits="userSpaceOnUse"
       id="radialGradient3627"
       xlink:href="#radialGradient3637"
       inkscape:collect="always" />
    <radialGradient
       fy="988.70068"
       fx="600.35101"
       r="96.022903"
       cy="988.70068"
       cx="600.35101"
       gradientTransform="matrix(0.5651637,0.7562621,-0.4022553,0.3174733,40.995102,-802.04245)"
       gradientUnits="userSpaceOnUse"
       id="radialGradient3627-237"
       xlink:href="#radialGradient3637-413"
       inkscape:collect="always" />
    <radialGradient
       id="radialGradient3637-413"
       cx="685.64941"
       cy="995.40723"
       r="96.022903"
       gradientTransform="matrix(0.315,0,0,0.315,-193.9387,-303.1233)"
       gradientUnits="userSpaceOnUse">
      <stop
         offset="0"
         style="stop-color:#e6e6e6"
         id="stop3959" />
      <stop
         offset="0.99440026"
         style="stop-color:#6cd5e6"
         id="stop3961" />
      <stop
         offset="0.9944"
         style="stop-color:#e6e6e6"
         id="stop3963" />
    </radialGradient>
  </defs>
  <g
     id="g2456">
    <path
       style="font-size:12px;fill:url(#radialGradient88-939);fill-opacity:0.98999999;stroke:#0d668b;stroke-width:2.98750019;stroke-linecap:round;stroke-linejoin:round;stroke-opacity:0.98999999"
       d="M 8.3043548,21.099476 C 7.9354368,16.817646 10.97736,12.412771 15.022495,11.873922 L 106.54245,12.359789 C 109.86928,12.676635 111.99209,14.489517 112.9112,19.604677 L 112.83107,103.02061 L 103.48124,111.38608 L 16.787671,111.78369 L 8.3273548,102.59063 L 8.3043548,21.099476 z "
       id="path208"
       sodipodi:nodetypes="ccccccccc" />
    <path
       style="font-size:12px;fill:url(#linearGradient231-432);fill-opacity:0.69930103;stroke:#1f2e49;stroke-width:2.53612256;stroke-opacity:0.99215698"
       d="M 37.010446,77.334446 L 87.501219,77.34565 L 87.937169,110.57695 L 36.669544,110.61648 L 37.010446,77.334446 z "
       id="path230"
       sodipodi:nodetypes="ccccc" />
    <path
       style="font-size:12px;fill:#ffffff;fill-opacity:0.99215698;stroke:#1f2e49;stroke-width:1.25000083;stroke-opacity:0.99215698"
       d="M 20.416675,26.945291 L 13.869532,26.695302 L 13.858342,19.845668 L 20.39803,19.781013 L 20.416675,26.945291 z "
       id="path313"
       sodipodi:nodetypes="ccccc" />
    <path
       style="font-size:12px;fill:url(#linearGradient418-71);fill-opacity:0.69930103;stroke:#0d668b;stroke-width:2.50000072;stroke-opacity:0.99215698"
       d="M 25.542595,12.728732 L 96.910939,12.742889 L 97.527149,54.541554 L 25.060732,54.591206 L 25.542595,12.728732 z "
       id="path412"
       sodipodi:nodetypes="ccccc" />
    <path
       style="font-size:12px;fill:#1f2e49;fill-opacity:0.99215698;stroke:#0d678b;stroke-width:1.10250449;stroke-opacity:0.98999999"
       d="M 45.714341,30.34156 L 89.877969,30.420534 L 90.036059,34.762499 L 45.761513,34.802239 L 45.714341,30.34156 z "
       id="path414" />
    <path
       style="font-size:12px;fill:#1f2e49;fill-opacity:0.99215698;stroke-width:8.96854973"
       d="M 58.271417,106.71417 L 45.174822,106.97757 L 45.151575,80.59894 L 58.232686,80.854743 L 58.271417,106.71417 z "
       id="path415"
       sodipodi:nodetypes="ccccc" />
    <path
       style="font-size:12px;fill:url(#linearGradient210-865);stroke:#620b00;stroke-width:1.73026621;stroke-opacity:0.99215698"
       d="M 26.534495,13.685448 L 95.844729,13.80939 L 96.092829,20.623653 L 26.608525,20.68602 L 26.534495,13.685448 z "
       id="path417" />
    <path
       style="font-size:12px;fill:#1f2e49;fill-opacity:0.99215698;stroke:#0d678b;stroke-width:1.10250449;stroke-opacity:0.98999999"
       d="M 45.714341,40.4362 L 89.877969,40.515174 L 90.036059,44.857139 L 45.761513,44.896879 L 45.714341,40.4362 z "
       id="path419" />
    <path
       style="font-size:12px;fill:#ffffff;fill-opacity:0.99215698;stroke:#1f2e49;stroke-width:1.25000083;stroke-opacity:0.99215698"
       d="M 108.24038,26.440591 L 101.69323,26.190602 L 101.68204,19.340968 L 108.22173,19.276313 L 108.24038,26.440591 z "
       id="path420"
       sodipodi:nodetypes="ccccc" />
  </g>
  <path
     transform="matrix(1.826978,0,0,1.7777931,41.468735,43.462922)"
     clip-path="url(#SVGID_4_)"
     d="M 23.589,42.098 C 33.866,42.098 42.205,33.725 42.205,23.453 C 42.205,13.246 33.867,4.872 23.589,4.872 C 13.383,4.872 4.974,13.246 4.974,23.453 C 4.974,33.725 13.384,42.098 23.589,42.098 z"
     id="path2607"
     style="fill:url(#radialGradient3627-237)" />
  <path
     transform="matrix(1.826978,0,0,1.7777931,41.468735,43.462922)"
     clip-path="url(#SVGID_4_)"
     d="M 17.279,6.581 C 17.185,6.581 17.082,6.62 16.977,6.679 C 17.224,6.606 17.34,6.581 17.279,6.581 M 23.396,7.773 L 23.457,6.878 L 22.513,6.937 L 22.638,7.772 L 23.396,7.772 M 12.739,23.237 C 12.549,23.058 12.676,22.281 12.676,22.281 C 12.676,22.281 9.838,20.79 6.749,19.893 C 6.368,19.783 6.561,18.998 6.937,18.701 L 6.812,17.863 C 6.749,17.446 7.443,15.416 8.137,15.238 C 8.831,15.058 8.074,16.431 8.074,16.431 L 7.381,16.849 C 7.381,16.849 8.2,17.804 8.39,17.804 C 8.578,17.804 8.894,17.325 8.894,17.325 L 8.012,16.73 L 8.831,16.371 L 8.883,16.057 L 9.021,16.013 L 10.378,13.957 C 11.316,13.573 12.469,13.098 12.615,13.028 C 12.868,12.909 14.633,11.895 14.948,11.657 C 15.264,11.417 15.956,11.478 16.208,11.478 C 16.461,11.478 16.839,11.358 16.902,10.7 C 16.965,10.044 17.217,9.924 17.407,10.104 C 17.596,10.281 17.217,10.581 17.659,10.7 C 18.1,10.82 18.478,11.118 18.794,10.82 C 19.024,10.602 18.716,10.353 18.508,10.165 L 22.009,10.165 L 22.388,9.088 L 21.568,8.969 L 18.542,8.67 L 18.542,8.312 L 18.3,8.353 C 18.628,6.552 20.574,6.849 19.109,5.806 C 19.02,5.742 17.738,7.827 17.411,7.786 C 16.82,7.708 16.057,7.702 15.894,7.894 C 15.678,8.148 16.377,7.021 16.979,6.679 C 16.261,6.89 14.975,6.237 12.656,7.875 C 11.872,8.429 9.904,10.675 9.093,11.538 C 5.671,15.578 5.395,19.034 5.395,19.187 C 5.395,19.485 6.12,19.654 6.182,20.013 C 6.245,20.369 4.984,21.565 4.984,22.161 C 4.984,22.435 4.353,25.416 5.739,29.145 C 6.969,32.683 9.349,35.803 9.655,35.999 L 10.531,35.534 C 10.531,35.534 9.081,32.967 9.018,32.727 C 8.955,32.489 10.657,29.026 11.478,29.147 C 12.297,29.263 12.108,29.504 12.613,29.206 C 13.118,28.909 13.433,26.459 14,26.222 C 14.568,25.982 15.198,25.684 15.135,25.087 C 15.071,24.489 12.928,23.416 12.739,23.237 M 26.422,5.685 L 24.72,5.087 L 25.035,6.043 L 26.422,5.685 M 20.053,7.894 C 20.243,7.894 24.025,5.388 23.647,5.327 C 23.27,5.268 23.207,5.327 22.196,5.207 C 21.189,5.088 20.115,6.64 19.864,6.88 C 19.612,7.119 19.697,7.894 20.053,7.894 M 37.414,25.895 L 37.902,25.261 L 37.414,25.089 L 37.048,25.549 L 36.621,26.182 L 36.986,26.354 L 37.414,25.895 M 39.549,27.967 L 39.427,27.045 L 38.635,27.045 L 38.573,27.735 L 37.84,27.621 L 37.658,26.873 L 37.292,26.643 L 36.864,27.161 L 36.437,27.047 L 36.314,27.448 L 36.803,27.565 L 36.803,31.303 L 38.53,31.719 C 38.49,31.787 38.461,31.846 38.451,31.877 C 38.328,32.28 38.938,32.455 39.365,32.28 C 39.523,32.217 40.518,31.834 40.834,31.083 C 41.273,30.037 41.558,28.531 41.634,28.044 L 41.441,27.621 L 40.22,28.082 L 39.547,27.967 L 39.549,27.967 M 38.938,12.656 C 36.146,8.423 29.438,5.656 29.438,5.656 L 27.71,6.561 L 27.465,6.16 L 26.856,5.929 L 26.856,6.448 L 27.405,6.909 L 27.04,7.081 L 25.636,7.195 L 22.463,8.922 L 22.768,10.303 L 22.401,10.419 L 22.219,10.706 L 23.257,12.258 L 23.318,12.777 L 22.464,12.949 L 22.464,13.984 L 21.976,14.099 L 22.037,14.905 L 17.886,17.783 L 18.008,19.392 C 18.313,19.795 20.694,22.212 20.694,22.212 C 20.694,22.212 23.44,22.326 24.05,21.982 C 24.661,21.637 24.233,22.327 24.417,22.5 C 24.599,22.673 24.661,23.881 24.843,23.996 C 25.027,24.111 24.843,24.8 25.087,25.033 C 25.331,25.262 25.331,28.024 25.331,28.024 C 25.331,28.024 26.796,30.498 26.796,31.13 C 26.796,31.762 26.734,31.705 27.895,31.648 C 29.054,31.591 29.298,31.13 29.542,30.959 C 29.786,30.788 29.786,30.384 30.03,30.037 C 30.276,29.691 30.702,28.37 31.252,27.91 C 31.8,27.448 33.266,27.102 33.387,26.299 C 33.509,25.492 34.058,24.86 34.058,24.86 L 36.697,22.069 L 36.623,22.444 L 36.562,23.882 L 37.356,23.595 L 37.295,22.04 L 37.011,21.739 L 37.051,21.695 C 37.051,21.695 36.867,21.35 36.624,21.35 C 36.38,21.35 34.914,21.695 34.671,21.638 C 34.427,21.58 33.389,18.818 33.206,18.704 C 33.022,18.589 31.864,16.689 31.864,16.689 C 31.864,16.689 34.548,19.911 34.975,21.177 C 35.223,21.914 36.155,21.228 36.913,20.459 L 37.113,20.948 L 37.6,20.832 L 37.539,20.257 L 38.088,20.257 L 38.088,21.12 L 37.905,21.581 L 37.842,22.328 L 38.331,22.789 L 38.575,22.387 L 39.366,21.638 L 40.282,21.178 L 40.527,21.638 L 40.649,22.271 L 40.405,22.961 L 39.917,23.364 L 39.673,24.4 L 39.673,24.918 L 39.124,24.572 L 39.063,23.48 L 38.27,23.539 L 37.905,24.516 L 38.454,25.323 L 39.735,25.496 L 40.772,24.517 L 40.894,22.621 L 41.356,22.011 C 41.657,22.784 41.872,23.593 41.872,24.346 C 41.872,25.172 42.526,23.929 42.206,21.409 C 42.205,21.406 41.703,15.422 38.938,12.656 z M 26.732,15.135 L 23.437,15.018 L 24.839,13.868 L 25.571,13.868 L 26.731,14.673 L 26.731,15.135 M 30.762,14.732 L 30.762,15.25 L 29.359,15.25 L 29.481,15.596 L 28.626,15.712 L 28.566,15.998 L 27.956,15.885 L 26.856,15.654 L 27.04,15.367 L 27.224,15.02 L 27.834,14.387 L 28.079,14.848 L 28.993,14.79 L 29.481,14.271 L 31.374,14.617 L 30.762,14.732 M 30.883,13.984 L 30.151,14.099 L 30.03,13.58 L 30.944,13.466 L 31.067,12.948 L 31.739,13.639 L 30.883,13.984 L 30.883,13.984 M 34.424,31.877 L 33.996,32.223 L 34.057,33.086 L 34.606,33.086 L 34.606,32.34 L 35.096,31.705 L 35.096,30.383 L 34.789,30.323 L 34.424,31.877 L 34.424,31.877 M 30.335,30.152 C 30.335,30.152 29.907,30.263 30.395,30.439 C 30.883,30.613 32.836,27.621 32.836,27.621 L 31.188,28.656 L 30.335,30.152 L 30.335,30.152 M 27.013,41.18 L 26.648,40.832 L 25.916,40.716 L 25.795,41.065 L 24.818,40.95 L 24.756,40.487 L 24.024,40.487 L 23.231,40.95 L 21.829,40.95 L 21.707,40.602 L 19.45,40.369 L 19.084,40.718 L 18.17,40.488 L 18.047,39.675 L 17.62,39.615 L 17.132,40.487 L 15.485,40.428 C 15.78,40.567 18.238,42.034 22.01,42.34 C 27.012,42.744 29.391,41.529 29.391,41.529 L 29.208,41.353 L 27.013,41.18 L 27.013,41.18 L 27.013,41.18 z"
     id="path2616"
     style="fill:url(#SVGID_6_-366-235)" />
</svg>
