<?xml version="1.0" encoding="UTF-8" standalone="no"?>

<!-- Created with Sodipodi ("http://www.sodipodi.com/") -->

<svg id="svg1" xmlns:rdf="http://www.w3.org/1999/02/22-rdf-syntax-ns#" xmlns="http://www.w3.org/2000/svg" height="120" width="120" version="1.0" xmlns:cc="http://creativecommons.org/ns#" xmlns:xlink="http://www.w3.org/1999/xlink" xmlns:dc="http://purl.org/dc/elements/1.1/">

 <metadata id="metadata82">

  <rdf:RDF>

   <cc:Work rdf:about="">

    <dc:format>image/svg+xml</dc:format>

    <dc:type rdf:resource="http://purl.org/dc/dcmitype/StillImage"/>

   </cc:Work>

  </rdf:RDF>

 </metadata>

 <defs id="defs22">
       <g id="SVGID_3_" overflow="visible" >
       	<path style="stroke: none;" d="M 4.71875 -8.625 L 7.90625  
-8.625"/>
     </g>
  <clipPath id="SVGID_4_">

   <use id="use2598" xlink:href="#SVGID_3_" height="48" width="48" y="0" x="0" overflow="visible"/>

  </clipPath>

  <radialGradient id="radialGradient88-939" cx="-53.453" gradientUnits="userSpaceOnUse" cy="225.88" r="202.19" gradientTransform="matrix(.29952 -.072773 0 .34665 28.411 -45.451)">

   <stop id="stop3266" stop-color="#0e719a" stop-opacity=".61569" offset="0"/>

   <stop id="stop3268" stop-color="#005481" stop-opacity=".91765" offset="1"/>

  </radialGradient>

  <linearGradient id="linearGradient231-432" x1="-40.478" gradientUnits="userSpaceOnUse" y1="341.19" gradientTransform="matrix(.28793 -.089729 0 .27772 54.954 7.1784)" x2="119.33" y2="514.52">

   <stop id="stop3272" stop-color="#fff" offset="0"/>

   <stop id="stop3274" stop-color="#b6b6b6" offset="1"/>

  </linearGradient>

  <linearGradient id="linearGradient418-71" x1="-27.638" gradientUnits="userSpaceOnUse" y1="348.35" gradientTransform="matrix(.40734 -.11296 0 .34902 48.631 -81.844)" x2="137.47" y2="505.37">

   <stop id="stop3278" stop-color="#fff" offset="0"/>

   <stop id="stop3280" stop-color="#d8dcdf" offset="1"/>

  </linearGradient>

  <linearGradient id="linearGradient210-865" x1="52.74" gradientUnits="userSpaceOnUse" y1="343.64" gradientTransform="matrix(1.9022 -.013396 .044041 .25151 -66.204 -37.28)" x2="53.02" y2="287.11">

   <stop id="stop3284" stop-color="#ffffdc" stop-opacity=".99216" offset="0"/>

   <stop id="stop3286" stop-color="#ffd020" stop-opacity=".95294" offset="1"/>

  </linearGradient>

  <linearGradient id="SVGID_6_-366-235" y2="-1269.6" gradientUnits="userSpaceOnUse" y1="-1149.4" gradientTransform="matrix(.315 0 0 -.315 -250.17 -358.41)" x2="869" x1="869">

   <stop id="stop3296" stop-color="#009200" offset="0"/>

   <stop id="stop3298" stop-color="#005800" offset=".2"/>

   <stop id="stop3300" stop-color="#0f0" offset="1"/>

  </linearGradient>

  <radialGradient id="radialGradient3627-237" gradientUnits="userSpaceOnUse" cx="600.35" cy="988.7" r="96.023" gradientTransform="matrix(.56516 .75626 -.40226 .31747 40.995 -802.04)">

   <stop id="stop3959" stop-color="#e6e6e6" offset="0"/>

   <stop id="stop3961" stop-color="#6cd5e6" offset=".99440"/>

   <stop id="stop3963" stop-color="#e6e6e6" offset=".9944"/>

  </radialGradient>

 </defs>

 <g id="g2456">

  <path id="path208" stroke-linejoin="round" d="m8.3044 21.099c-.3690-4.281 2.6726-8.686 6.7176-9.225l91.518.486c3.33.317 5.45 2.13 6.37 7.245l-.08 83.415-9.35 8.37-86.692.39-8.4606-9.19-.0230-81.491z" stroke-opacity="0.99" fill-opacity="0.99" stroke="#0d668b" stroke-linecap="round" stroke-width="2.9875" fill="url(#radialGradient88-939)"/>

  <path id="path230" d="m37.01 77.334l50.491.012.436 33.234-51.267.04.340-33.286z" stroke-opacity=".99216" fill-opacity=".69930" stroke="#1f2e49" stroke-width="2.5361" fill="url(#linearGradient231-432)"/>

  <path id="path313" d="m20.417 26.945l-6.547-.250-.012-6.849 6.54-.065.019 7.164z" stroke-opacity=".99216" fill-opacity=".99216" stroke="#1f2e49" stroke-width="1.25" fill="#fff"/>

  <path id="path412" d="m25.543 12.729l71.368.014.616 41.799-72.466.049.482-41.862z" stroke-opacity=".99216" fill-opacity=".69930" stroke="#0d668b" stroke-width="2.5" fill="url(#linearGradient418-71)"/>

  <path id="path414" d="m45.714 30.342l44.164.079.158 4.341-44.274.040-.048-4.46z" stroke-opacity="0.99" fill-opacity=".99216" stroke="#0d678b" stroke-width="1.1025" fill="#1f2e49"/>

  <path id="path415" d="m58.271 106.71l-13.096.27-.023-26.381 13.081.256.038 25.855z" fill-opacity=".99216" stroke-width="8.9685" fill="#1f2e49"/>

  <path id="path417" d="m26.534 13.685l69.311.124.248 6.815-69.484.062-.075-7.001z" stroke-opacity=".99216" stroke="#620b00" stroke-width="1.7303" fill="url(#linearGradient210-865)"/>

  <path id="path419" d="m45.714 40.436l44.164.079.158 4.342-44.274.040-.048-4.461z" stroke-opacity="0.99" fill-opacity=".99216" stroke="#0d678b" stroke-width="1.1025" fill="#1f2e49"/>

  <path id="path420" d="m108.24 26.441l-6.55-.250-.01-6.85 6.54-.065.02 7.165z" stroke-opacity=".99216" fill-opacity=".99216" stroke="#1f2e49" stroke-width="1.25" fill="#fff"/>

 </g>

 <path id="path2607" d="m23.589 42.098c10.277 0 18.616-8.373 18.616-18.645 0-10.207-8.338-18.581-18.616-18.581-10.206 0-18.615 8.374-18.615 18.581 0 10.272 8.41 18.645 18.615 18.645z" clip-path="url(#SVGID_4_)" transform="matrix(1.827 0 0 1.7778 41.469 43.463)" fill="url(#radialGradient3627-237)"/>

 <path id="path2616" d="m17.279 6.581c-.094 0-.197.039-.302.098.247-.073.363-.098.302-.098m6.117 1.192l.061-.895-.944.059.125.835h.758m-10.657 15.465c-.190-.179-.063-.956-.063-.956s-2.838-1.491-5.927-2.388c-.381-.110-.188-.895.188-1.192l-.125-.838c-.063-.417.631-2.447 1.325-2.625.694-.180-.063 1.193-.063 1.193l-.693.418s.819.955 1.009.955c.188 0 .504-.479.504-.479l-.882-.595.819-.359.052-.314.138-.044 1.357-2.056c.938-.384 2.091-.859 2.237-.929.253-.119 2.018-1.133 2.333-1.371.316-.240 1.008-.179 1.26-.179.253 0 .631-.120.694-.778.063-.656.315-.776.505-.596.189.177-.190.477.252.596.441.120.819.418 1.135.120.230-.218-.078-.467-.286-.655h3.501l.379-1.077-.820-.119-3.026-.299v-.358l-.242.041c.328-1.801 2.274-1.504.809-2.547-.089-.064-1.371 2.021-1.698 1.98-.591-.078-1.354-.084-1.517.108-.216.254.483-.873 1.085-1.215-.718.211-2.004-.442-4.323 1.196-.784.554-2.752 2.8-3.563 3.663-3.422 4.04-3.698 7.496-3.698 7.649 0 .298.725.467.787.826.063.356-1.198 1.552-1.198 2.148 0 .274-.631 3.255.755 6.984 1.23 3.538 3.61 6.658 3.916 6.854l.876-.465s-1.45-2.567-1.513-2.807c-.063-.238 1.639-3.701 2.46-3.58.819.116.630.357 1.135.059.505-.297.820-2.747 1.387-2.984.568-.240 1.198-.538 1.135-1.135-.064-.598-2.207-1.671-2.396-1.85m13.683-17.552l-1.702-.598.315.956 1.387-.358m-6.369 2.209c.190 0 3.972-2.506 3.594-2.567-.377-.059-.440 0-1.451-.120-1.007-.119-2.081 1.433-2.332 1.673-.252.239-.167 1.014.189 1.014m17.361 18.001l.488-.634-.488-.172-.366.460-.427.633.365.172.428-.459m2.135 2.072l-.122-.922h-.792l-.062.690-.733-.114-.182-.748-.366-.230-.428.518-.427-.114-.123.401.489.117v3.738l1.727.416c-.040.068-.069.127-.079.158-.123.403.487.578.914.403.158-.063 1.153-.446 1.469-1.197.439-1.046.724-2.552 0.8-3.039l-.193-.423-1.221.461-.673-.115h.002m-.611-15.311c-2.792-4.233-9.5-7-9.5-7l-1.728.905-.245-.401-.609-.231v.519l.549.461-.365.172-1.404.114-3.173 1.727.305 1.381-.367.116-.182.287 1.038 1.552.061.519-.854.172v1.035l-.488.115.061.806-4.151 2.878.122 1.609c.305.403 2.686 2.82 2.686 2.82s2.746.114 3.356-.230c.611-.345.183.345.367.518.182.173.244 1.381.426 1.496.184.115 0 .804.244 1.037.244.229.244 2.991.244 2.991s1.465 2.474 1.465 3.106-.062.575 1.099.518c1.159-.057 1.403-.518 1.647-.689s.244-.575.488-.922c.246-.346.672-1.667 1.222-2.127.548-.462 2.014-.808 2.135-1.611.122-.807.671-1.439.671-1.439l2.639-2.791-.074.375-.061 1.438.794-.287-.061-1.555-.284-.301.040-.044s-.184-.345-.427-.345c-.244 0-1.71.345-1.953.288-.244-.058-1.282-2.82-1.465-2.934-.184-.115-1.342-2.015-1.342-2.015s2.684 3.222 3.111 4.488c.248.737 1.18.051 1.938-.718l0.2.489.487-.116-.061-.575h.549v.863l-.183.461-.063.747.489.461.244-.402.791-.749.916-.460.245.460.122.633-.244.690-.488.403-.244 1.036v.518l-.549-.346-.061-1.092-.793.059-.365.977.549.807 1.281.173 1.037-.979.122-1.896.462-.610c.301.773.516 1.582.516 2.335 0 .826.654-.417.334-2.937-.001-.003-.503-5.987-3.268-8.753zm-12.206 2.479l-3.295-.117 1.402-1.15h.732l1.16.805v.462m4.031-.403v.518h-1.403l.122.346-.855.116-.060.286-.610-.113-1.1-.231.184-.287.184-.347.610-.633.245.461.914-.058.488-.519 1.893.346-.612.115m.121-.748l-.732.115-.121-.519.914-.114.123-.518.672.691-.856.345m3.541 17.893l-.428.346.061.863h.549v-.746l.490-.635v-1.322l-.307-.060-.365 1.554m-4.089-1.725s-.428.111.060.287c.488.174 2.441-2.818 2.441-2.818l-1.648 1.035-.853 1.496m-3.322 11.028l-.365-.348-.732-.116-.121.349-.977-.115-.062-.463h-.732l-.793.463h-1.402l-.122-.348-2.257-.233-.366.349-.914-.230-.123-.813-.427-.060-.488.872-1.647-.059c.295.139 2.753 1.606 6.525 1.912 5.002.404 7.381-.811 7.381-.811l-.183-.176-2.195-.173z" clip-path="url(#SVGID_4_)" transform="matrix(1.827 0 0 1.7778 41.469 43.463)" fill="url(#SVGID_6_-366-235)"/>

</svg>

